<?xml version="1.0" standalone="no"?>
<!DOCTYPE svg PUBLIC "-//W3C//DTD SVG 20010904//EN"
 "http://www.w3.org/TR/2001/REC-SVG-20010904/DTD/svg10.dtd">
<svg version="1.0" xmlns="http://www.w3.org/2000/svg"
 width="800.000000pt" height="800.000000pt" viewBox="0 0 800.000000 800.000000"
 preserveAspectRatio="xMidYMid meet">

<g transform="translate(0.000000,800.000000) scale(0.100000,-0.100000)"
fill="#000000" stroke="none">
<path d="M1657 7165 c-109 -30 -193 -113 -264 -265 -53 -112 -110 -237 -172
-380 -177 -404 -207 -496 -198 -609 12 -163 88 -255 272 -333 253 -107 381
-161 900 -384 757 -324 764 -327 965 -328 157 0 150 -2 390 84 48 17 105 30
132 30 54 0 161 -20 263 -50 153 -44 504 -120 628 -135 44 -6 47 -8 47 -37 0
-61 67 -118 140 -118 41 0 84 23 108 57 32 46 252 568 252 599 0 61 -64 124
-126 124 -15 0 -44 -5 -65 -11 -39 -12 -61 -4 -198 73 -20 12 -56 32 -81 46
-25 13 -58 32 -75 42 -33 19 -99 56 -185 103 -103 56 -215 134 -261 181 -25
26 -78 104 -119 174 -121 211 -201 299 -353 390 -93 56 -81 51 -432 202 -143
61 -316 135 -385 165 -69 29 -217 93 -330 140 -113 48 -252 108 -310 133 -179
77 -223 93 -298 108 -89 17 -180 17 -245 -1z"/>
<path d="M5158 4993 c-9 -21 -37 -87 -62 -148 -25 -60 -46 -114 -46 -119 0 -5
20 -32 43 -60 145 -170 242 -373 294 -616 15 -72 18 -133 18 -392 0 -168 -3
-310 -8 -314 -4 -4 -60 2 -125 14 -267 50 -587 12 -608 -73 -3 -13 3 -111 14
-217 12 -106 28 -269 37 -363 18 -194 49 -505 70 -710 8 -77 24 -241 35 -365
28 -293 27 -284 57 -320 34 -41 65 -56 175 -82 86 -21 116 -23 388 -22 263 0
306 2 396 21 114 24 173 50 197 86 15 24 31 151 72 582 9 88 24 246 35 350 10
105 26 264 35 355 9 91 24 248 35 350 10 102 24 234 30 294 6 59 9 110 7 113
-3 2 -65 -8 -139 -22 -78 -16 -184 -29 -257 -32 l-124 -6 7 109 c16 279 18
442 7 587 -32 391 -126 619 -351 851 -80 83 -198 186 -213 186 -2 0 -11 -17
-19 -37z"/>
<path d="M5827 4293 c-6 -10 12 -133 23 -153 6 -13 53 -15 309 -18 l301 -2 0
-31 c0 -17 -4 -72 -9 -122 -6 -51 -17 -168 -26 -262 -9 -93 -25 -253 -35 -355
-11 -102 -26 -257 -35 -345 -9 -88 -25 -245 -35 -350 -38 -361 -50 -481 -70
-685 -12 -113 -29 -288 -40 -390 -10 -102 -22 -214 -25 -250 -11 -124 -30
-149 -140 -183 -138 -43 -236 -52 -600 -52 -365 0 -409 4 -591 51 -66 17 -111
50 -118 87 -5 22 -19 153 -56 512 -11 110 -29 281 -40 380 -11 99 -27 254 -35
345 -9 91 -25 242 -35 335 -10 94 -26 247 -35 340 -9 94 -23 229 -30 300 -8
72 -17 162 -21 200 -3 39 -12 129 -19 200 -8 72 -17 163 -20 202 l-6 73 368 2
368 3 3 83 3 82 -416 0 c-452 0 -466 -2 -501 -55 -19 -29 -17 -76 21 -435 23
-219 54 -515 70 -670 8 -80 24 -228 34 -330 25 -235 57 -544 76 -730 8 -80 24
-230 35 -335 11 -104 26 -260 35 -345 40 -394 46 -427 82 -471 86 -102 347
-149 823 -149 549 0 811 59 871 194 10 23 23 87 28 142 5 54 15 149 21 209 6
61 19 191 30 290 10 99 26 252 35 340 9 88 24 239 35 335 10 96 26 247 35 335
9 88 24 237 35 330 10 94 21 202 25 240 3 39 12 126 20 195 7 69 21 199 30
290 9 91 25 243 36 339 18 167 18 175 2 209 -10 20 -31 45 -46 56 -27 20 -43
21 -397 24 -202 2 -370 -1 -373 -5z"/>
</g>
</svg>
