<?xml version="1.0" standalone="no"?>
<!DOCTYPE svg PUBLIC "-//W3C//DTD SVG 20010904//EN"
 "http://www.w3.org/TR/2001/REC-SVG-20010904/DTD/svg10.dtd">
<svg version="1.0" xmlns="http://www.w3.org/2000/svg"
 width="1024.000000pt" height="1024.000000pt" viewBox="0 0 1024.000000 1024.000000"
 preserveAspectRatio="xMidYMid meet">

<g transform="translate(0.000000,1024.000000) scale(0.100000,-0.100000)"
fill="#000000" stroke="none">
<path d="M4764 8815 c-8 -19 -2 -48 30 -160 55 -188 55 -392 2 -577 -14 -48
-58 -156 -97 -240 -39 -84 -75 -164 -81 -178 -9 -24 -10 -22 -28 29 -10 29
-24 57 -31 62 -20 13 -45 11 -57 -3 -18 -23 -160 -401 -188 -503 -22 -81 -27
-121 -27 -210 -1 -121 11 -184 54 -290 16 -38 29 -74 29 -78 0 -5 -333 -7
-741 -6 -794 2 -758 4 -759 -46 0 -12 75 -107 181 -230 100 -116 231 -268 292
-340 331 -384 501 -582 582 -675 208 -240 377 -436 530 -615 90 -104 225 -262
300 -350 76 -88 146 -179 157 -203 48 -107 49 -112 46 -1215 l-3 -1032 -22
-41 c-48 -90 -99 -111 -473 -193 -124 -27 -274 -59 -335 -71 -149 -30 -205
-62 -245 -141 -26 -50 -25 -75 3 -94 21 -13 125 -14 883 -10 472 3 1024 5
1226 5 360 0 368 0 378 20 14 27 -2 79 -37 121 -41 48 -113 78 -266 109 -285
59 -554 121 -628 145 -79 27 -104 46 -135 105 -18 33 -19 82 -22 1075 -3 1074
-1 1125 38 1210 10 22 229 286 486 586 258 300 644 750 858 1000 376 438 478
556 634 736 39 46 72 89 72 96 0 7 -6 22 -14 33 -14 18 -33 19 -801 15 -433
-2 -785 1 -783 5 76 155 99 252 99 407 0 140 -23 275 -72 414 -55 156 -159
333 -197 333 -42 -1 -47 -15 -48 -132 -1 -82 -7 -125 -19 -156 -19 -46 -57
-82 -87 -82 -15 0 -17 5 -11 28 5 15 8 101 7 192 0 145 -3 178 -27 273 -45
182 -101 304 -215 471 -124 183 -351 416 -404 416 -16 0 -31 -6 -34 -15z m277
-347 c85 -106 106 -147 119 -230 18 -126 -13 -273 -100 -465 -16 -34 -34 -87
-40 -116 l-13 -54 -28 11 c-25 9 -32 7 -50 -10 -18 -19 -19 -26 -10 -97 15
-121 -4 -229 -59 -338 -28 -55 -27 -54 -44 -40 -33 28 -60 9 -99 -69 -107
-214 -121 -370 -47 -527 26 -56 27 -62 9 -53 -37 21 -152 135 -189 190 -79
117 -116 256 -107 404 4 76 15 121 61 260 31 92 62 179 70 194 l14 26 7 -45
c10 -63 21 -79 54 -79 35 0 40 6 81 105 18 44 64 145 102 225 83 173 131 308
148 413 13 76 8 335 -6 417 l-7 35 44 -49 c24 -28 65 -76 90 -108z m665 -1033
c4 -16 2 -25 -6 -25 -6 0 -9 4 -6 9 8 13 -4 41 -18 41 -16 0 -39 81 -30 105 6
14 13 5 30 -43 13 -34 26 -73 30 -87z m-630 -62 c79 -119 133 -318 121 -448
-7 -72 5 -95 49 -95 35 0 95 27 126 57 l26 25 17 -74 c9 -41 15 -97 13 -124
l-3 -49 -350 0 -350 0 -3 63 c-3 58 10 123 38 198 9 23 12 24 31 11 40 -28 56
-11 124 128 74 155 105 248 105 316 0 27 4 49 9 49 5 0 26 -26 47 -57z m243
-279 c8 5 8 0 1 -19 -6 -15 -10 -45 -10 -67 0 -60 -6 -43 -14 37 -4 43 -3 65
3 56 5 -7 14 -10 20 -7z m438 -156 c-3 -8 -6 -5 -6 6 -1 11 2 17 5 13 3 -3 4
-12 1 -19z m-1277 -408 l32 -40 -604 0 c-456 0 -607 -3 -616 -12 -24 -24 -12
-59 36 -111 45 -48 328 -376 902 -1046 719 -838 669 -783 740 -819 114 -58
223 -52 332 17 26 17 92 84 155 157 159 189 917 1073 1079 1260 431 498 440
510 401 543 -10 8 -202 12 -656 13 l-642 3 28 37 28 37 758 1 758 0 -18 -23
c-22 -27 -355 -417 -613 -717 -220 -257 -728 -850 -924 -1080 -78 -90 -199
-232 -270 -315 -71 -82 -137 -168 -147 -191 -52 -117 -51 -88 -52 -1228 l0
-1061 23 -60 c15 -38 39 -77 69 -106 39 -40 60 -51 141 -77 96 -30 302 -79
570 -133 153 -31 236 -54 245 -70 4 -5 -435 -9 -1122 -9 -1107 0 -1127 1
-1098 19 17 10 100 33 185 51 528 108 680 149 742 200 21 18 51 59 70 98 l33
67 3 1069 c3 1310 21 1177 -195 1432 -140 166 -550 642 -983 1144 -173 201
-374 435 -447 520 -72 85 -190 223 -262 305 -72 83 -131 153 -131 158 0 4 319
7 709 7 l709 0 32 -40z m920 36 c0 -2 -7 -20 -15 -40 l-15 -36 -287 2 -286 3
-24 38 -23 37 325 0 c179 0 325 -2 325 -4z m-676 -210 c104 -51 181 -75 195
-61 21 23 22 54 2 74 -12 12 -21 23 -21 26 0 3 88 5 196 5 179 -1 195 -3 189
-18 -23 -54 -12 -82 32 -82 24 0 127 48 175 81 25 18 54 19 667 17 l641 -3
-184 -215 c-208 -242 -187 -228 -391 -272 -89 -20 -131 -22 -370 -23 -301 0
-367 7 -695 75 -387 81 -476 94 -714 111 -227 17 -454 -3 -656 -55 -24 -7 -40
10 -193 188 l-167 196 602 0 602 0 90 -44z"/>
</g>
</svg>
