<?xml version="1.0" standalone="no"?>
<!DOCTYPE svg PUBLIC "-//W3C//DTD SVG 20010904//EN"
 "http://www.w3.org/TR/2001/REC-SVG-20010904/DTD/svg10.dtd">
<svg version="1.0" xmlns="http://www.w3.org/2000/svg"
 width="1024.000000pt" height="1024.000000pt" viewBox="0 0 1024.000000 1024.000000"
 preserveAspectRatio="xMidYMid meet">

<g transform="translate(0.000000,1024.000000) scale(0.100000,-0.100000)"
fill="#000000" stroke="none">
<path d="M8515 8788 c-61 -22 -540 -200 -599 -223 -34 -13 -151 -58 -261 -98
-110 -41 -393 -148 -630 -237 -236 -89 -470 -177 -520 -195 -49 -18 -146 -54
-215 -80 -547 -204 -535 -201 -700 -134 -175 70 -307 85 -483 54 -297 -52
-617 -266 -719 -480 -66 -140 -18 -288 117 -361 41 -22 41 -20 60 -154 16
-116 19 -180 8 -180 -5 0 -37 9 -73 21 -68 21 -305 77 -425 100 -38 7 -123 14
-188 14 -154 0 -157 -3 -176 -161 -30 -268 -113 -621 -221 -944 -162 -487
-312 -814 -636 -1391 -168 -299 -242 -440 -293 -556 -199 -455 -223 -922 -69
-1363 72 -204 188 -421 240 -448 35 -18 105 -44 448 -167 173 -63 382 -139
464 -169 89 -33 165 -56 189 -56 53 0 199 51 322 112 402 201 711 540 880 962
65 165 108 343 170 716 31 184 72 409 91 500 74 355 197 771 321 1085 78 198
254 554 358 725 48 80 103 171 122 202 44 72 40 95 -26 159 -137 132 -737 415
-1219 574 l-84 27 7 46 c10 70 42 165 68 203 22 32 26 34 73 31 71 -5 240 15
318 38 156 44 320 152 410 269 25 33 71 106 101 162 31 57 65 113 76 125 41
44 140 84 444 179 171 53 407 127 525 165 447 142 947 297 1505 467 154 47
301 91 328 99 125 38 180 159 126 272 -41 84 -142 123 -234 90z m119 -79 c49
-23 72 -112 40 -157 -20 -29 -8 -25 -394 -143 -547 -169 -700 -216 -1100 -341
-746 -232 -1265 -400 -1313 -425 -75 -37 -136 -106 -191 -216 -128 -250 -344
-399 -617 -422 -98 -8 -74 7 73 47 272 73 423 175 393 265 -18 50 -78 70 -279
93 -311 36 -521 25 -635 -35 -83 -42 -129 -126 -116 -209 l7 -41 -19 25 c-55
69 -60 140 -17 229 61 125 265 288 456 361 148 57 191 65 353 65 l150 0 120
-50 c115 -47 124 -49 215 -49 95 0 95 0 345 93 332 123 908 339 1175 441 118
45 238 90 265 100 28 10 203 75 390 145 291 108 561 209 615 228 26 9 58 7 84
-4z m-4614 -1963 c183 -30 535 -119 557 -140 10 -9 11 -40 6 -123 -3 -61 -9
-117 -13 -123 -8 -14 -179 59 -401 171 -166 84 -289 159 -328 203 l-24 26 59
0 c32 0 97 -6 144 -14z m-115 -163 c117 -78 506 -268 646 -316 11 -3 15 -14
13 -29 -15 -95 -46 -262 -49 -268 -3 -4 -62 7 -133 25 -125 32 -307 63 -316
54 -2 -2 -7 -14 -10 -26 -6 -20 -2 -22 41 -28 81 -12 234 -44 319 -67 l82 -22
4 -74 c6 -81 21 -111 78 -149 38 -27 97 -30 139 -8 40 20 81 72 81 101 0 13 5
24 11 24 22 0 271 -106 404 -173 163 -81 265 -148 319 -207 l39 -43 -23 -19
c-42 -34 -272 -21 -485 28 -318 73 -797 251 -1004 373 -57 34 -74 30 -69 -14
6 -40 372 -206 685 -311 294 -98 539 -148 733 -148 150 -1 181 9 201 62 16 41
2 73 -59 132 -96 94 -350 232 -622 338 l-125 49 -19 152 c-11 83 -17 153 -14
156 3 3 39 -7 79 -23 316 -124 802 -249 1081 -278 l58 -5 -48 -72 c-158 -236
-334 -594 -465 -949 -156 -420 -246 -777 -357 -1418 -109 -623 -168 -801 -361
-1085 -133 -196 -295 -353 -492 -478 -120 -76 -324 -169 -419 -191 -17 -4 -47
2 -80 15 -86 34 -713 262 -848 309 -69 24 -131 48 -139 54 -38 29 -134 219
-185 365 -93 266 -124 521 -96 776 34 301 122 533 371 977 333 593 483 900
629 1291 134 359 250 802 281 1076 15 129 15 128 42 104 12 -11 49 -38 82 -60z
m950 -57 c434 -144 963 -389 1154 -533 46 -35 26 -45 -74 -37 -234 18 -776
161 -1117 294 l-58 23 0 138 c0 105 3 139 13 139 6 0 44 -11 82 -24z"/>
<path d="M3792 6040 c-67 -41 -62 -100 15 -177 48 -49 58 -52 66 -21 4 15 -5
33 -34 66 -50 57 -50 78 -1 91 20 6 47 11 58 11 15 0 23 8 26 25 5 24 3 25
-46 25 -33 0 -62 -7 -84 -20z"/>
<path d="M2996 4208 c-24 -46 -65 -121 -91 -168 -141 -260 -228 -486 -260
-678 -38 -224 -5 -476 85 -669 152 -324 432 -533 845 -628 171 -40 391 -36
551 10 313 90 547 295 699 610 55 114 86 207 124 370 24 108 101 498 101 517
0 3 -75 8 -167 11 -179 7 -299 22 -483 63 -360 80 -830 270 -1081 437 l-27 18
-100 -198 c-54 -109 -116 -241 -135 -293 -128 -336 -149 -621 -71 -930 13 -52
24 -99 24 -104 0 -19 -54 41 -102 113 -109 166 -141 407 -92 676 29 152 93
320 218 570 67 132 122 242 124 245 1 3 -25 29 -57 58 l-60 52 -45 -82z"/>
</g>
</svg>
