<?xml version="1.0" standalone="no"?>
<!DOCTYPE svg PUBLIC "-//W3C//DTD SVG 20010904//EN"
 "http://www.w3.org/TR/2001/REC-SVG-20010904/DTD/svg10.dtd">
<svg version="1.0" xmlns="http://www.w3.org/2000/svg"
 width="800.000000pt" height="800.000000pt" viewBox="0 0 800.000000 800.000000"
 preserveAspectRatio="xMidYMid meet">

<g transform="translate(0.000000,800.000000) scale(0.100000,-0.100000)"
fill="#000000" stroke="none">
<path d="M4475 7206 c-169 -46 -766 -346 -942 -475 -23 -17 -64 -63 -90 -103
-26 -40 -115 -167 -197 -281 -82 -115 -154 -225 -161 -244 -15 -44 -3 -108 27
-140 54 -57 165 -67 279 -23 96 36 138 76 257 246 172 246 191 261 477 377
190 78 264 110 327 143 83 42 156 28 298 -60 126 -77 280 -205 337 -279 24
-31 33 -52 33 -82 0 -53 -38 -133 -83 -172 -43 -38 -358 -198 -568 -289 -281
-121 -321 -152 -379 -291 -37 -88 -35 -108 16 -157 75 -73 155 -67 449 34 410
140 500 161 782 180 286 20 377 48 575 179 202 134 235 147 432 171 106 13
140 29 155 71 7 21 11 164 11 429 0 385 -1 398 -20 423 -31 39 -78 48 -230 41
-179 -9 -232 0 -570 91 -155 42 -593 151 -765 191 -213 49 -325 54 -450 20z"/>
<path d="M4474 6548 c-38 -16 -118 -49 -179 -74 -60 -25 -164 -72 -230 -104
-101 -48 -130 -68 -173 -114 -59 -65 -162 -216 -162 -238 0 -15 39 -38 66 -38
8 0 40 -9 71 -20 68 -24 67 -24 182 85 63 60 87 76 141 93 82 27 388 102 414
102 11 0 73 -25 139 -56 l120 -55 22 21 c13 12 33 45 45 72 19 44 20 54 9 75
-28 52 -199 192 -295 242 -78 41 -95 42 -170 9z"/>
<path d="M3380 5851 c-296 -67 -535 -294 -632 -601 -20 -66 -23 -93 -22 -230
1 -136 4 -165 27 -236 76 -244 222 -417 442 -525 343 -168 800 -72 1039 217
133 161 198 389 176 619 -12 127 -10 125 -141 103 -69 -11 -71 -12 -65 -37 3
-14 9 -66 12 -116 24 -343 -219 -633 -574 -684 -204 -30 -422 55 -581 225
-130 139 -186 312 -163 501 37 289 231 516 497 578 87 20 231 21 310 2 73 -17
205 -72 238 -97 l23 -19 38 87 c35 82 36 86 19 103 -27 26 -150 85 -218 104
-95 26 -319 29 -425 6z"/>
<path d="M3490 5550 c-52 -8 -147 -49 -173 -74 -16 -17 -16 -20 5 -57 12 -21
59 -75 104 -119 66 -65 87 -80 112 -80 37 0 37 0 57 144 19 137 19 139 -2 164
-23 26 -47 31 -103 22z"/>
<path d="M3751 5468 c-36 -110 -70 -262 -71 -315 0 -64 19 -77 102 -70 37 3
93 13 125 21 32 9 77 20 101 26 36 9 42 15 42 36 0 67 -128 238 -227 303 -25
17 -50 31 -54 31 -4 0 -12 -15 -18 -32z"/>
<path d="M3135 5320 c-40 -63 -76 -152 -73 -179 5 -40 67 -65 171 -70 92 -3
162 3 185 18 11 7 9 16 -11 47 -38 59 -215 224 -241 224 -3 0 -17 -18 -31 -40z"/>
<path d="M3860 5001 c-133 -31 -130 -30 -130 -54 0 -12 18 -43 39 -68 50 -58
173 -159 194 -159 38 0 116 182 117 273 l0 27 -72 -1 c-40 0 -107 -9 -148 -18z"/>
<path d="M3110 4943 c-50 -8 -50 -8 -33 -65 33 -112 113 -224 192 -271 l31
-18 76 155 c44 91 74 165 72 178 -3 23 -4 23 -158 24 -85 1 -166 0 -180 -3z"/>
<path d="M3514 4704 c-59 -119 -74 -158 -65 -167 20 -20 181 -21 247 -2 66 19
154 61 154 73 0 17 -65 106 -119 164 -54 59 -96 88 -125 88 -10 0 -43 -56 -92
-156z"/>
<path d="M2435 4508 c-34 -18 -45 -40 -45 -91 0 -48 3 -80 40 -422 11 -99 27
-245 35 -325 8 -80 24 -226 35 -325 28 -253 56 -515 75 -685 8 -80 24 -228 35
-330 11 -102 27 -250 36 -330 8 -80 24 -221 34 -315 11 -93 26 -240 35 -325
29 -284 42 -368 62 -407 23 -46 96 -97 166 -118 235 -70 1011 -89 1387 -34
161 24 231 49 288 102 46 45 44 34 97 537 8 80 24 233 35 340 24 230 42 402
70 675 11 110 27 263 35 340 8 77 24 230 35 340 12 110 29 281 40 380 10 99
26 254 35 345 9 91 25 247 36 347 26 249 26 255 -12 287 l-31 26 -274 0 c-151
0 -274 -3 -274 -8 0 -4 -24 -39 -53 -78 l-54 -71 261 -7 c144 -4 264 -10 268
-14 5 -5 -1 -86 -11 -182 -11 -96 -27 -247 -36 -335 -8 -88 -24 -243 -35 -345
-11 -102 -27 -259 -35 -350 -9 -91 -25 -244 -35 -340 -20 -183 -50 -473 -75
-720 -30 -304 -57 -549 -71 -665 -18 -145 -38 -187 -104 -219 -105 -53 -347
-80 -705 -81 -468 0 -754 49 -807 141 -19 33 -28 86 -58 374 -24 224 -42 390
-69 645 -11 99 -29 268 -41 375 -36 341 -51 481 -70 655 -10 94 -21 199 -24
235 -4 36 -11 103 -16 150 -51 436 -71 653 -62 662 4 4 64 10 134 14 l127 7
-51 56 c-27 31 -55 66 -61 79 -10 21 -15 22 -141 22 -75 0 -139 -5 -151 -12z"/>
<path d="M2985 3604 c-110 -20 -151 -32 -163 -47 -7 -9 -7 -48 3 -132 14 -125
43 -392 70 -650 9 -82 25 -226 35 -320 10 -93 26 -240 35 -325 72 -689 86
-800 105 -810 9 -5 61 -18 116 -30 84 -18 147 -22 419 -27 462 -8 715 17 751
73 15 22 27 116 74 574 11 113 27 268 35 345 15 151 47 461 70 695 19 190 54
532 60 593 l6 47 -34 0 c-18 0 -91 -17 -163 -37 l-129 -38 -185 1 c-163 1
-199 4 -305 28 -255 58 -323 67 -525 71 -145 3 -215 1 -275 -11z"/>
</g>
</svg>
