<?xml version="1.0" standalone="no"?>
<!DOCTYPE svg PUBLIC "-//W3C//DTD SVG 20010904//EN"
 "http://www.w3.org/TR/2001/REC-SVG-20010904/DTD/svg10.dtd">
<svg version="1.0" xmlns="http://www.w3.org/2000/svg"
 width="1024.000000pt" height="1024.000000pt" viewBox="0 0 1024.000000 1024.000000"
 preserveAspectRatio="xMidYMid meet">

<g transform="translate(0.000000,1024.000000) scale(0.100000,-0.100000)"
fill="#000000" stroke="none">
<path d="M7629 8387 c-71 -20 -99 -46 -206 -194 -55 -76 -191 -264 -303 -418
-112 -154 -266 -368 -344 -475 -157 -218 -594 -816 -656 -898 -47 -62 -134
-121 -215 -146 -45 -15 -75 -17 -143 -12 -266 20 -254 20 -305 -4 -43 -20
-127 -100 -127 -121 0 -5 -15 -9 -33 -9 -23 0 -41 -8 -59 -27 -50 -54 -78
-105 -78 -144 0 -32 6 -43 46 -77 l46 -39 -21 -34 c-30 -49 -27 -80 12 -116
17 -16 163 -135 322 -264 160 -128 339 -274 400 -323 144 -116 150 -119 184
-80 14 17 31 39 36 49 10 16 13 16 49 -9 49 -33 64 -33 112 3 67 48 96 89 93
131 -2 28 4 47 29 81 42 57 66 138 58 197 -3 25 -20 88 -37 141 -50 156 -36
319 36 425 14 20 168 213 342 429 175 216 457 565 627 777 170 212 358 444
417 515 116 143 146 192 155 258 27 198 -244 436 -437 384z"/>
<path d="M3920 4940 c-8 -15 -2 -76 24 -247 61 -394 114 -747 160 -1073 77
-536 224 -1579 241 -1708 23 -180 43 -218 134 -261 l56 -26 970 4 c1052 3
1008 1 1067 58 15 15 35 45 43 67 8 23 40 214 70 426 31 212 85 576 120 810
128 841 276 1886 273 1925 l-3 40 -1572 3 c-1563 2 -1572 2 -1583 -18z m3066
-97 c-9 -45 -80 -521 -151 -1018 -36 -253 -83 -575 -105 -715 -37 -241 -74
-489 -156 -1050 -19 -135 -43 -260 -51 -278 -31 -65 25 -62 -1028 -62 -1061 0
-997 -4 -1029 65 -7 16 -26 118 -41 225 -158 1148 -300 2128 -376 2600 -21
135 -39 248 -39 253 0 4 671 7 1491 7 l1491 0 -6 -27z"/>
<path d="M6741 4532 c-19 -14 -25 -43 -46 -187 -13 -93 -27 -185 -30 -202 l-6
-33 -1158 0 -1159 0 -6 33 c-3 17 -17 109 -32 202 -14 94 -30 176 -36 183 -14
16 -53 15 -68 -3 -9 -11 2 -106 54 -457 70 -473 141 -975 202 -1438 22 -167
45 -307 56 -338 26 -70 109 -159 185 -197 l58 -30 719 -3 c780 -3 777 -3 865
52 52 33 110 100 137 160 23 52 67 329 174 1121 22 165 68 482 101 704 33 222
58 409 55 416 -10 28 -43 36 -65 17z m-137 -809 c-23 -164 -74 -530 -113 -813
-40 -283 -79 -539 -88 -568 -19 -62 -78 -133 -137 -165 l-41 -22 -714 -3 -713
-3 -52 24 c-59 28 -117 83 -142 135 -17 36 -26 99 -144 962 -33 245 -71 514
-83 598 l-24 152 1147 0 1146 0 -42 -297z"/>
</g>
</svg>
