<?xml version="1.0" standalone="no"?>
<!DOCTYPE svg PUBLIC "-//W3C//DTD SVG 20010904//EN"
 "http://www.w3.org/TR/2001/REC-SVG-20010904/DTD/svg10.dtd">
<svg version="1.0" xmlns="http://www.w3.org/2000/svg"
 width="1024.000000pt" height="1024.000000pt" viewBox="0 0 1024.000000 1024.000000"
 preserveAspectRatio="xMidYMid meet">

<g transform="translate(0.000000,1024.000000) scale(0.100000,-0.100000)"
fill="#000000" stroke="none">
<path d="M3464 8236 c-52 -43 -204 -335 -273 -522 -32 -87 -81 -281 -103 -404
-20 -114 -17 -461 5 -580 58 -313 114 -462 342 -915 240 -476 261 -542 253
-782 -8 -197 -45 -319 -183 -601 -91 -186 -219 -423 -305 -562 -311 -509 -475
-729 -613 -824 -123 -84 -238 -85 -577 -1 -362 89 -465 101 -600 69 -74 -17
-110 -45 -110 -85 0 -40 22 -59 160 -142 69 -41 321 -192 560 -337 239 -144
500 -302 580 -350 80 -48 307 -185 505 -305 511 -309 504 -305 531 -305 37 0
74 42 74 84 0 80 -62 219 -153 342 -24 32 -95 115 -157 184 -220 243 -279 341
-288 472 -5 86 7 147 50 258 125 319 562 1048 825 1376 85 108 220 238 305
296 84 56 227 122 323 148 73 20 116 23 490 30 500 11 689 27 897 80 237 61
511 193 702 337 175 133 380 354 509 546 113 171 112 201 -21 339 -271 281
-737 615 -1622 1164 -404 251 -468 289 -745 443 -509 283 -1104 546 -1283 568
-41 5 -52 2 -78 -21z m101 -86 c3 -5 19 -7 35 -3 40 7 61 -11 54 -47 -3 -15 0
-38 6 -51 11 -20 10 -25 -10 -41 -13 -11 -36 -18 -54 -16 -18 1 -37 -2 -44 -6
-16 -10 -42 11 -42 34 0 10 -7 23 -15 30 -8 7 -15 21 -15 32 0 10 7 21 15 24
8 4 15 12 15 18 0 27 42 47 55 26z m460 -220 c267 -122 707 -352 1020 -532
103 -60 362 -220 555 -342 102 -65 232 -148 290 -184 160 -100 492 -325 615
-416 61 -45 123 -89 138 -99 37 -24 327 -257 327 -263 0 -16 -45 2 -80 31 -52
44 -81 51 -120 32 -27 -14 -31 -14 -42 2 -7 10 -24 22 -38 26 -14 4 -37 16
-52 26 -14 11 -37 19 -51 19 -14 0 -27 6 -30 14 -8 21 -139 89 -169 88 -18 0
-29 6 -33 19 -10 32 -75 69 -119 69 -31 0 -45 6 -61 25 -13 17 -34 28 -60 32
-22 3 -54 18 -71 33 -18 15 -52 35 -77 45 -31 12 -47 24 -49 38 -4 29 -130 97
-180 97 -28 0 -38 4 -38 15 0 9 -11 27 -26 41 -23 24 -29 26 -92 19 l-67 -6
-40 41 c-50 52 -87 72 -127 68 -33 -3 -32 -6 -52 84 -3 15 -16 37 -29 49 -19
18 -30 20 -82 15 l-60 -6 -51 55 c-43 46 -57 55 -86 55 -35 0 -65 24 -101 82
-11 17 -29 29 -50 33 -19 4 -58 28 -92 56 -51 44 -63 50 -98 47 -33 -2 -41 2
-52 22 -7 13 -41 41 -76 62 -70 41 -67 38 -106 87 -37 46 -101 91 -130 91 -19
0 -23 5 -23 31 0 24 -13 44 -59 92 -55 57 -63 62 -113 67 -51 5 -54 7 -72 47
-15 33 -28 46 -67 62 -26 12 -52 21 -58 21 -6 0 -11 8 -11 18 0 9 -3 28 -7 41
-3 13 -2 22 3 19 5 -2 72 -33 149 -68z m-212 -7 c7 -82 0 -91 -68 -93 -72 -4
-75 -3 -75 24 0 14 -4 27 -9 30 -18 12 -18 46 0 67 10 12 19 26 19 31 0 4 29
8 64 8 l63 0 6 -67z m-333 2 c7 -8 29 -15 49 -15 36 0 38 -2 66 -66 30 -68 55
-94 91 -94 17 0 24 -9 33 -44 12 -49 50 -86 87 -86 15 0 24 -6 24 -15 0 -39
31 -74 80 -92 43 -15 50 -21 50 -44 0 -58 97 -129 182 -133 32 -2 56 -9 70
-23 13 -11 31 -25 41 -30 10 -5 25 -24 35 -43 25 -48 122 -114 170 -114 31 -1
49 -10 93 -49 29 -26 66 -53 82 -60 18 -8 27 -19 27 -35 0 -13 14 -37 30 -54
28 -28 35 -30 79 -24 l48 6 52 -60 c56 -65 84 -78 130 -62 28 10 30 9 41 -22
20 -61 54 -77 134 -64 15 2 22 -6 30 -32 16 -50 21 -56 89 -101 53 -34 69 -40
106 -37 43 3 45 2 71 -42 32 -54 65 -69 114 -52 48 18 66 7 66 -37 0 -29 7
-44 33 -67 79 -75 137 -92 187 -57 19 14 25 14 28 3 10 -28 51 -59 88 -66 23
-4 53 -20 74 -39 53 -48 128 -88 157 -82 18 3 28 -2 40 -20 22 -33 109 -76
154 -76 32 0 38 -3 42 -27 9 -44 45 -60 149 -63 90 -4 93 -5 136 -41 43 -38
74 -44 123 -22 12 5 22 -3 37 -29 25 -41 61 -58 108 -49 22 4 34 2 34 -5 0
-20 -149 -188 -268 -302 -303 -290 -613 -437 -1067 -505 -68 -11 -242 -18
-550 -24 -394 -8 -458 -7 -510 6 -336 87 -571 223 -797 463 -82 87 -103 117
-144 204 -27 56 -95 193 -152 304 -129 254 -182 375 -232 529 -157 492 -125
936 102 1437 17 37 34 67 38 67 4 0 13 -7 20 -15z m433 -91 c32 -5 39 -11 39
-34 1 -3 -2 -17 -6 -32 -5 -24 -2 -28 32 -38 20 -7 43 -19 50 -28 10 -14 16
-14 30 -4 36 26 44 24 88 -19 24 -24 44 -49 44 -56 0 -7 -11 -20 -25 -29 -32
-21 -32 -29 5 -44 17 -7 33 -16 36 -21 3 -6 -41 -97 -62 -127 -3 -5 -102 47
-109 57 -3 6 1 27 10 48 19 45 13 68 -13 54 -12 -6 -25 -5 -42 5 -14 7 -35 13
-46 14 -32 0 -48 24 -34 50 21 40 11 47 -90 68 -33 7 -35 10 -34 46 1 26 8 45
21 55 11 9 23 24 27 34 4 12 12 16 23 13 10 -3 35 -8 56 -12z m426 -343 c49
-43 49 -45 -12 -110 -42 -45 -44 -45 -107 8 -30 26 -33 32 -23 53 17 38 63 88
81 88 10 -1 37 -18 61 -39z m155 -133 c25 -18 45 -40 45 -50 1 -15 -73 -118
-84 -118 -16 0 -105 77 -105 90 1 22 68 110 85 110 8 0 35 -15 59 -32z m214
-124 c23 -19 42 -39 42 -44 0 -12 -79 -110 -89 -110 -5 0 -31 20 -57 44 l-48
43 18 29 c29 46 58 74 76 74 9 0 35 -16 58 -36z m132 -94 c0 -12 10 -25 25
-32 18 -8 25 -18 23 -32 -1 -12 4 -32 11 -44 7 -13 11 -25 9 -26 -12 -10 -98
-27 -107 -22 -6 4 -19 3 -28 -2 -28 -14 -43 -3 -43 32 0 18 -6 38 -12 44 -10
10 -2 22 36 57 52 49 86 58 86 25z m198 -141 c23 -29 42 -55 42 -59 0 -8 -100
-90 -110 -90 -10 0 -90 99 -90 110 0 9 99 90 110 90 3 0 25 -23 48 -51z m186
-65 c3 -9 6 -24 6 -35 0 -11 7 -31 16 -44 13 -20 14 -28 4 -40 -7 -8 -20 -15
-29 -15 -9 -1 -34 -7 -56 -15 -45 -16 -65 -7 -65 31 0 12 -4 26 -10 29 -17 11
-11 43 13 69 15 16 37 26 62 29 22 2 43 4 46 5 4 1 10 -5 13 -14z m120 -143
c22 11 28 9 53 -17 15 -16 39 -36 52 -45 l25 -16 -39 -49 c-21 -27 -42 -53
-46 -58 -4 -5 -33 8 -64 29 -41 27 -55 41 -50 53 3 9 -2 31 -12 50 -17 32 -17
34 1 47 13 10 24 11 37 5 12 -7 26 -6 43 1z m298 -133 c8 -24 18 -51 23 -60 5
-13 1 -20 -18 -27 -13 -5 -27 -18 -29 -29 -6 -21 -70 -40 -76 -22 -2 6 -19 30
-36 53 -32 43 -36 67 -11 67 8 0 17 9 20 20 4 13 15 20 33 20 15 0 34 5 42 10
27 17 37 11 52 -32z m164 -64 c44 -26 55 -51 35 -83 -11 -17 -3 -41 13 -41 6
0 17 9 24 20 15 25 33 25 82 0 26 -13 40 -27 40 -40 0 -15 12 -21 61 -31 l61
-12 -5 -53 c-8 -78 -20 -94 -59 -84 -18 4 -46 11 -62 15 -27 6 -28 8 -23 51 4
42 4 44 -12 29 -22 -19 -36 -19 -66 1 -23 15 -25 15 -49 -13 l-25 -28 -35 19
c-20 10 -43 27 -52 37 -14 16 -14 19 1 43 16 24 16 25 -12 40 -52 26 -57 39
-32 88 40 79 47 82 115 42z m409 -254 c3 -5 20 -7 36 -3 37 7 52 -10 43 -50
-3 -15 -1 -34 6 -42 16 -19 4 -35 -26 -35 -17 0 -27 -8 -34 -25 -11 -30 -33
-32 -57 -6 -10 10 -27 20 -37 22 -34 7 -43 35 -20 66 11 15 24 40 28 56 5 20
13 27 31 27 13 0 27 -4 30 -10z m226 -101 c24 -17 47 -35 51 -38 10 -9 -21
-70 -55 -110 l-25 -31 -45 26 c-62 34 -69 44 -61 93 5 28 16 49 36 66 38 32
46 31 99 -6z m172 -99 c3 -13 14 -20 30 -20 43 0 60 -49 22 -64 -7 -2 -16 -19
-20 -36 -8 -36 -30 -48 -57 -31 -13 8 -24 8 -37 1 -22 -11 -35 1 -45 42 -5 21
-2 31 13 39 10 7 16 20 14 29 -3 10 3 27 13 39 24 27 60 28 67 1z m255 -88
c23 -19 42 -39 42 -44 0 -13 -81 -108 -92 -108 -11 0 -108 82 -108 91 0 17 93
108 103 102 7 -4 31 -22 55 -41z m190 -63 c14 -33 21 -39 39 -36 12 2 20 1 18
-3 -3 -4 2 -13 10 -20 8 -7 15 -23 15 -36 0 -20 -5 -24 -31 -24 -19 0 -37 -7
-45 -17 -10 -14 -17 -16 -31 -7 -12 8 -23 8 -34 1 -24 -15 -49 -1 -49 26 0 13
-9 32 -20 42 -28 25 -25 41 10 54 17 5 30 16 30 23 0 21 21 38 47 38 17 0 27
-10 41 -41z m-3116 -878 c107 -84 277 -182 410 -236 68 -28 77 -34 57 -40 -39
-12 -200 -106 -259 -151 -61 -47 -203 -190 -272 -274 -221 -269 -642 -955
-802 -1306 -87 -190 -107 -258 -113 -380 -10 -197 49 -316 299 -593 141 -156
278 -330 243 -309 -5 3 -104 63 -220 134 -623 378 -1388 840 -1525 920 -69 40
-134 80 -145 89 -19 15 -17 15 35 9 30 -3 159 -32 285 -64 257 -65 389 -85
479 -75 82 9 196 48 259 89 62 40 191 172 268 276 193 258 479 731 663 1095
181 356 229 514 230 757 1 76 2 138 3 138 2 0 49 -36 105 -79z"/>
<path d="M3412 7294 c-56 -39 -82 -146 -82 -340 0 -304 97 -592 352 -1040 191
-336 403 -542 723 -702 206 -103 361 -141 670 -163 360 -25 683 -2 921 66 168
48 409 186 459 262 24 36 23 98 -2 131 -25 34 -186 134 -1498 927 -220 133
-619 375 -887 538 -267 163 -505 305 -527 316 -48 25 -98 27 -129 5z m366
-228 c158 -95 382 -231 497 -301 116 -71 379 -230 585 -355 677 -409 1044
-632 1105 -670 33 -21 119 -73 190 -115 252 -151 265 -161 247 -199 -26 -58
-224 -177 -383 -230 -203 -68 -303 -80 -659 -80 -324 -1 -456 9 -620 44 -198
42 -454 176 -640 335 -159 135 -277 298 -442 610 -189 359 -258 585 -258 849
0 190 24 286 71 286 12 0 150 -78 307 -174z"/>
</g>
</svg>
