<?xml version="1.0" standalone="no"?>
<!DOCTYPE svg PUBLIC "-//W3C//DTD SVG 20010904//EN"
 "http://www.w3.org/TR/2001/REC-SVG-20010904/DTD/svg10.dtd">
<svg version="1.0" xmlns="http://www.w3.org/2000/svg"
 width="1024.000000pt" height="1024.000000pt" viewBox="0 0 1024.000000 1024.000000"
 preserveAspectRatio="xMidYMid meet">

<g transform="translate(0.000000,1024.000000) scale(0.100000,-0.100000)"
fill="#000000" stroke="none">
<path d="M5161 8531 c-26 -26 -27 -65 -2 -90 10 -10 51 -26 91 -35 40 -9 113
-32 161 -52 408 -163 688 -505 754 -921 l7 -43 -91 0 c-65 0 -93 4 -95 13 -2
6 -12 46 -21 87 -81 357 -394 652 -788 742 -119 28 -352 30 -468 4 -249 -54
-459 -172 -632 -355 -87 -93 -157 -193 -157 -225 0 -30 35 -66 63 -66 32 0 47
14 115 105 165 224 406 372 674 415 122 20 322 8 433 -25 263 -78 454 -235
573 -472 34 -66 75 -200 66 -214 -6 -10 -1497 -12 -1507 -3 -9 9 48 89 108
153 205 218 525 302 804 210 63 -21 63 -21 90 -2 33 25 40 74 13 101 -10 10
-57 30 -103 43 -71 20 -107 24 -234 24 -179 0 -242 -14 -390 -85 -173 -83
-307 -204 -406 -365 l-50 -80 -851 -5 -852 -5 -15 -26 c-8 -14 -11 -36 -8 -50
6 -23 785 -840 1781 -1868 232 -239 476 -492 544 -562 l122 -127 0 -1174 0
-1173 -23 -39 c-12 -22 -37 -48 -54 -59 -18 -10 -232 -72 -475 -138 -244 -65
-458 -125 -476 -134 -54 -25 -128 -101 -152 -158 -29 -66 -32 -149 -7 -174 17
-17 87 -18 1390 -21 755 -1 1387 0 1404 3 48 9 65 47 53 119 -18 112 -86 198
-188 236 -26 10 -236 68 -467 130 -231 62 -437 121 -457 131 -23 12 -47 37
-63 64 l-26 44 1 1172 1 1172 73 78 c41 43 267 278 503 521 724 748 1698 1759
1806 1875 71 77 81 104 50 142 l-18 22 -568 -1 c-451 0 -568 2 -571 12 -2 7
-8 45 -15 85 -18 116 -41 145 -104 129 -39 -9 -49 -47 -32 -119 26 -111 29
-107 -75 -107 -64 0 -92 4 -94 13 -2 6 -11 53 -20 102 -65 342 -266 641 -564
839 -114 76 -210 121 -348 166 -137 44 -185 49 -213 21z m-1054 -1293 c-68
-284 -66 -504 4 -736 54 -176 174 -369 316 -509 79 -78 116 -92 155 -56 38 34
24 70 -65 162 -185 192 -283 394 -318 659 -19 145 6 373 52 475 l12 27 799 0
798 0 0 -55 c0 -30 -7 -88 -17 -130 l-16 -75 23 -25 c14 -15 35 -25 51 -25 54
0 76 57 95 243 l6 67 89 0 c65 0 89 -3 89 -12 0 -7 -7 -56 -15 -108 -50 -335
-275 -621 -567 -721 -161 -54 -284 -59 -462 -16 -79 19 -91 19 -115 6 -19 -11
-27 -24 -29 -50 -4 -48 18 -66 115 -92 106 -29 364 -31 463 -3 252 70 482 256
615 499 65 119 125 333 125 448 l0 49 632 0 632 0 -35 -37 c-59 -64 -547 -571
-859 -893 -163 -168 -480 -496 -705 -730 -225 -234 -490 -507 -587 -606 l-178
-181 2 -1219 3 -1219 35 -64 c40 -74 106 -132 177 -155 27 -8 228 -63 448
-122 220 -58 417 -113 438 -121 35 -14 87 -64 87 -84 0 -5 -504 -9 -1280 -9
-1046 0 -1280 2 -1280 13 0 7 15 27 33 45 30 29 69 41 489 156 251 68 474 133
495 143 52 24 114 88 144 148 l24 50 3 1215 2 1215 -277 285 c-262 271 -1221
1264 -1810 1877 -150 156 -273 286 -273 288 0 3 325 5 721 5 l721 0 -5 -22z"/>
<path d="M4416 7171 c-28 -31 -49 -179 -43 -306 13 -294 150 -553 385 -730
206 -154 401 -219 662 -219 626 1 1136 483 1206 1140 6 54 4 64 -15 83 -26 26
-72 27 -95 3 -10 -12 -20 -51 -26 -100 -22 -173 -104 -383 -210 -536 -55 -80
-167 -195 -250 -257 -30 -22 -100 -63 -155 -90 -486 -237 -1055 -66 -1283 386
-78 155 -105 350 -72 518 14 69 13 84 -10 107 -25 25 -72 26 -94 1z"/>
<path d="M4706 5885 c-22 -22 -28 -49 -17 -78 12 -30 127 -89 259 -132 77 -26
84 -26 107 -11 30 19 41 59 27 90 -7 17 -35 31 -103 55 -51 18 -119 46 -151
62 -64 32 -99 36 -122 14z"/>
</g>
</svg>
