<?xml version="1.0" standalone="no"?>
<!DOCTYPE svg PUBLIC "-//W3C//DTD SVG 20010904//EN"
 "http://www.w3.org/TR/2001/REC-SVG-20010904/DTD/svg10.dtd">
<svg version="1.0" xmlns="http://www.w3.org/2000/svg"
 width="2048.000000pt" height="2048.000000pt" viewBox="0 0 2048.000000 2048.000000"
 preserveAspectRatio="xMidYMid meet">

<g transform="translate(0.000000,2048.000000) scale(0.100000,-0.100000)"
fill="#000000" stroke="none">
<path d="M12450 17409 c-748 -82 -1388 -508 -1745 -1164 -127 -233 -227 -555
-250 -800 -3 -38 -8 -80 -11 -92 l-4 -23 -1774 0 c-976 0 -1782 -3 -1791 -6
-28 -11 -41 -52 -115 -359 -198 -825 -341 -1736 -391 -2486 -17 -266 -7 -792
20 -989 67 -491 188 -890 391 -1290 280 -552 698 -1021 1220 -1369 292 -195
625 -349 924 -427 90 -23 143 -52 208 -113 138 -127 233 -329 286 -606 16 -83
17 -229 17 -1795 0 -1411 -2 -1714 -14 -1760 -17 -68 -57 -146 -90 -171 -25
-20 -42 -26 -431 -139 -247 -72 -414 -123 -965 -295 -165 -51 -390 -121 -500
-155 -253 -78 -274 -91 -275 -162 0 -25 8 -46 24 -65 l24 -28 2626 -3 2625 -2
26 22 c37 32 44 94 16 130 -22 28 -112 59 -591 206 -107 33 -312 96 -455 140
-143 45 -440 135 -660 201 -220 66 -418 129 -440 141 -47 24 -77 64 -107 145
l-22 60 -7 1670 c-5 1055 -4 1711 2 1780 28 315 148 592 314 725 53 42 136 83
210 105 182 51 535 208 711 315 797 486 1395 1314 1619 2245 81 336 114 586
122 930 6 252 -4 508 -32 817 -8 90 -18 195 -21 235 l-7 71 44 12 c118 29 337
108 444 159 364 174 659 431 888 776 328 493 437 1116 301 1725 -82 365 -283
733 -558 1019 -339 352 -756 571 -1241 652 -139 23 -434 33 -565 18z m550
-197 c419 -75 798 -272 1094 -568 329 -329 532 -749 587 -1218 15 -124 6 -442
-14 -551 -73 -387 -215 -695 -448 -971 -172 -203 -410 -393 -639 -509 -145
-73 -458 -176 -465 -152 -2 7 -9 55 -15 107 -7 52 -14 99 -17 105 -2 7 51 29
124 54 255 84 556 262 612 361 15 27 23 59 24 95 l2 55 49 0 c102 0 174 63
289 247 133 216 216 439 248 668 15 106 3 168 -44 234 -33 46 -33 46 -14 66
11 11 29 40 40 65 68 147 -57 577 -256 878 -105 159 -156 200 -257 209 -54 5
-56 6 -52 32 7 53 -17 112 -71 168 -168 177 -579 357 -887 389 -83 8 -140 -7
-189 -51 l-38 -35 -23 25 c-39 41 -100 65 -167 65 -252 0 -745 -202 -919 -375
-55 -55 -74 -98 -74 -163 l0 -49 -65 -5 c-85 -7 -113 -26 -202 -140 -167 -213
-324 -611 -327 -830 l-1 -78 -132 0 c-119 0 -131 2 -128 18 2 9 9 60 16 112
60 482 327 964 714 1288 317 266 718 433 1140 476 102 10 394 -3 505 -22z
m-481 -438 c12 -15 26 -43 31 -63 7 -24 10 -247 8 -659 l-3 -624 -427 436
c-235 239 -437 450 -448 468 -12 20 -20 50 -20 77 0 55 29 83 175 170 200 119
473 217 617 220 39 1 50 -3 67 -25z m517 -5 c183 -48 386 -141 539 -246 84
-58 102 -89 86 -145 -17 -55 -78 -122 -519 -568 l-391 -395 0 635 c-1 599 0
637 18 676 29 63 54 77 127 70 34 -4 97 -16 140 -27z m-1530 -575 c28 -11 161
-138 459 -435 l421 -419 -642 0 c-625 0 -641 0 -659 20 -25 28 -21 89 14 228
36 139 56 192 117 314 85 170 189 308 231 308 11 0 38 -7 59 -16z m2410 2 c28
-20 112 -144 167 -246 113 -213 200 -543 157 -596 -8 -8 -27 -23 -44 -32 -28
-15 -93 -17 -666 -20 l-635 -3 425 427 c234 234 445 439 469 455 49 32 95 37
127 15z m-1346 -1062 c0 -9 29 -138 66 -287 152 -631 281 -1384 338 -1967 42
-432 50 -555 50 -850 0 -402 -27 -622 -124 -1010 -210 -842 -728 -1587 -1420
-2045 -247 -164 -435 -254 -750 -360 -122 -40 -207 -75 -242 -98 -63 -42 -163
-141 -214 -212 -114 -159 -197 -409 -224 -675 -8 -72 -10 -630 -8 -1785 l3
-1680 22 -78 c31 -108 77 -189 140 -247 62 -57 59 -55 413 -160 151 -44 498
-149 771 -233 l497 -152 -2057 -5 c-1131 -3 -2058 -4 -2060 -3 -5 3 -18 -2
204 69 197 62 385 119 994 304 223 67 421 132 441 145 73 46 125 121 167 240
l28 80 3 1710 c2 1224 0 1738 -8 1810 -35 309 -152 577 -330 755 -104 104
-164 137 -333 185 -321 90 -552 197 -842 390 -736 488 -1266 1270 -1465 2160
-76 337 -95 530 -95 935 1 410 30 761 110 1350 70 505 229 1309 335 1693 l11
37 2789 0 c2540 0 2790 -1 2790 -16z m1626 -40 c53 -26 67 -60 54 -141 -14
-90 -63 -263 -100 -354 -51 -122 -160 -303 -223 -371 -34 -36 -90 -38 -133 -5
-16 13 -222 217 -459 455 l-429 432 628 0 c560 0 632 -2 662 -16z m-1009 -531
c494 -505 474 -482 475 -554 0 -49 -14 -66 -111 -132 -134 -90 -470 -234 -491
-210 -4 5 -26 118 -48 253 -45 268 -171 875 -208 1003 -3 9 -1 17 4 17 6 0
176 -170 379 -377z"/>
<path d="M7084 13413 c-63 -12 -87 -96 -45 -154 13 -18 19 -29 13 -25 -21 13
-26 -13 -56 -269 -36 -302 -48 -488 -53 -792 -4 -260 -3 -323 7 -323 8 0 10
-3 7 -7 -4 -3 -1 -13 6 -21 9 -13 9 -14 0 -8 -10 5 -13 -5 -13 -42 0 -37 4
-49 15 -49 18 0 20 23 3 30 -7 3 -3 4 10 4 27 -2 28 -7 1 -41 -19 -24 -21 -35
-14 -104 14 -162 60 -388 117 -575 16 -53 24 -67 36 -62 12 4 13 3 2 -10 -7
-9 -10 -18 -7 -21 3 -3 10 3 16 15 9 16 7 23 -11 35 -12 9 -17 16 -11 16 7 0
14 -4 18 -9 3 -6 14 -8 24 -6 14 2 17 -2 15 -20 -2 -21 1 -23 22 -15 14 6 26
6 29 0 4 -6 -1 -10 -10 -10 -11 0 -15 -5 -11 -15 3 -8 1 -15 -4 -15 -5 0 -9
-11 -8 -25 1 -14 6 -25 10 -25 4 0 8 -7 8 -15 0 -8 5 -15 10 -15 6 0 8 12 5
28 -5 26 -5 26 5 3 7 -17 7 -28 -1 -37 -9 -11 -8 -19 6 -34 16 -17 16 -20 2
-20 -9 0 -18 12 -22 30 -4 17 -11 28 -16 24 -5 -3 -6 -11 -2 -17 4 -7 0 -6
-10 2 -9 7 -14 17 -11 22 3 5 0 9 -7 9 -7 0 -9 3 -6 6 3 4 2 15 -4 25 -6 13
-6 19 1 19 5 0 10 -7 10 -16 0 -8 4 -13 9 -10 4 3 6 17 3 32 -3 17 -7 22 -12
13 -5 -6 -15 -9 -24 -6 -12 5 -9 -11 15 -76 17 -45 35 -94 41 -110 5 -15 15
-26 22 -25 6 2 11 -2 11 -7 0 -6 -3 -9 -7 -8 -19 7 111 -255 181 -362 29 -44
49 -69 46 -56 -5 17 -4 22 6 19 8 -3 19 2 26 11 11 14 12 14 13 -4 1 -18 1
-19 11 -2 11 19 29 23 29 6 0 -5 -5 -7 -11 -3 -9 5 -10 -1 -5 -20 4 -17 3 -25
-3 -22 -5 3 -11 0 -14 -8 -6 -16 1 -26 17 -26 6 0 4 5 -4 11 -12 8 -9 10 13 6
23 -4 27 -1 23 12 -3 9 5 3 18 -13 15 -18 28 -26 36 -21 9 5 11 4 6 -3 -4 -7
-1 -12 6 -12 10 0 10 -2 -1 -9 -7 -5 -23 -6 -35 -4 -12 3 -17 1 -11 -4 14 -12
16 -46 2 -55 -9 -6 -9 -8 0 -8 13 0 39 39 35 53 -1 4 3 7 8 7 13 0 13 -27 0
-35 -6 -4 -8 -11 -4 -16 3 -6 -2 -17 -12 -24 -11 -8 -14 -15 -7 -15 19 0 36
-37 21 -46 -7 -4 -8 -3 -4 4 4 7 2 12 -4 12 -6 0 -9 4 -6 8 3 5 -1 9 -9 9 -20
0 31 -68 146 -196 102 -112 284 -278 301 -273 5 1 7 -2 4 -7 -8 -12 34 -42 47
-34 6 3 7 2 4 -4 -8 -12 136 -120 285 -213 172 -108 472 -248 505 -236 8 3 11
2 8 -3 -7 -12 31 -24 46 -15 8 5 9 3 4 -6 -6 -10 -1 -12 26 -7 22 5 29 4 20
-2 -11 -7 -3 -12 30 -21 24 -6 65 -18 91 -25 78 -23 315 -63 446 -76 129 -13
500 -8 524 7 7 5 26 7 43 6 22 -2 26 0 16 7 -11 7 -3 8 25 4 124 -16 571 118
834 251 324 164 790 534 795 631 0 14 -3 25 -7 25 -7 0 -12 -14 -10 -31 1 -3
-5 -6 -13 -6 -11 0 -10 5 2 24 15 23 63 33 63 12 0 -5 -4 -8 -9 -5 -5 3 -11
-1 -15 -9 -27 -72 166 149 282 322 93 139 196 326 185 337 -4 3 -2 6 4 6 11 0
69 116 115 230 46 116 120 360 114 376 -3 8 -2 13 3 10 5 -3 11 4 14 17 39
180 70 344 83 437 21 154 30 674 15 864 -20 242 -51 547 -67 651 -9 63 -12
125 -8 167 6 65 6 68 -24 98 l-30 30 -2689 -1 c-1478 -1 -2698 -4 -2709 -6z
m604 -190 c-10 -2 -28 -2 -40 0 -13 2 -5 4 17 4 22 1 32 -1 23 -4z m69 1 c-3
-3 -12 -4 -19 -1 -8 3 -5 6 6 6 11 1 17 -2 13 -5z m250 0 c-3 -3 -12 -4 -19
-1 -8 3 -5 6 6 6 11 1 17 -2 13 -5z m76 -1 c-7 -2 -21 -2 -30 0 -10 3 -4 5 12
5 17 0 24 -2 18 -5z m125 0 c-21 -2 -55 -2 -75 0 -21 2 -4 4 37 4 41 0 58 -2
38 -4z m170 0 c-15 -2 -42 -2 -60 0 -18 2 -6 4 27 4 33 0 48 -2 33 -4z m579 1
c-3 -3 -12 -4 -19 -1 -8 3 -5 6 6 6 11 1 17 -2 13 -5z m706 -1 c-7 -2 -19 -2
-25 0 -7 3 -2 5 12 5 14 0 19 -2 13 -5z m934 1 c-3 -3 -12 -4 -19 -1 -8 3 -5
6 6 6 11 1 17 -2 13 -5z m1843 -3 c0 -4 -11 -6 -25 -3 -14 2 -25 6 -25 8 0 2
11 4 25 4 14 0 25 -4 25 -9z m40 -1 c0 -5 -2 -10 -4 -10 -3 0 -8 5 -11 10 -3
6 -1 10 4 10 6 0 11 -4 11 -10z m-5193 -372 c-3 -8 -6 -5 -6 6 -1 11 2 17 5
13 3 -3 4 -12 1 -19z m3063 -192 c0 -2 -7 -7 -16 -10 -8 -3 -12 -2 -9 4 6 10
25 14 25 6z m564 -16 c8 -8 7 -13 -1 -18 -8 -5 -9 -13 -3 -22 8 -12 10 -12 16
3 8 21 20 22 22 2 1 -8 3 -22 4 -30 1 -8 5 -16 10 -16 4 -1 13 -3 18 -4 6 -1
13 -3 18 -4 4 -1 0 -6 -8 -11 -12 -8 -12 -10 5 -10 17 0 17 -2 5 -10 -13 -8
-9 -13 10 -12 3 0 6 -12 6 -26 l2 -27 -17 25 c-9 13 -28 39 -43 56 -15 17 -24
35 -20 39 4 5 2 5 -5 1 -6 -3 -15 -2 -18 4 -4 6 -30 26 -58 45 l-52 35 49 -5
c27 -2 54 -9 60 -15z m-627 -4 c23 6 16 -4 -43 -59 -42 -40 -83 -88 -100 -121
-16 -30 -30 -53 -32 -52 -6 6 42 106 50 106 5 0 6 5 3 10 -4 6 -11 8 -16 5 -5
-4 -9 -1 -9 5 0 7 8 9 23 5 18 -6 20 -5 10 6 -17 17 -17 34 0 21 9 -8 17 -8
27 0 12 8 11 9 -4 4 -14 -5 -16 -3 -9 6 5 7 8 26 7 43 -2 21 -1 26 6 15 8 -12
10 -12 15 3 6 13 11 14 26 7 10 -6 31 -7 46 -4z m-116 -29 c-10 -9 -11 -8 -5
6 3 10 9 15 12 12 3 -3 0 -11 -7 -18z m534 -106 c59 -26 122 -86 153 -145 23
-44 27 -63 27 -141 0 -106 -22 -163 -90 -231 -78 -77 -218 -106 -331 -67 -73
25 -154 110 -178 187 -58 185 48 378 227 416 57 12 141 3 192 -19z m-439 -676
c22 -16 51 -38 64 -48 25 -17 25 -17 -8 -2 -18 9 -32 12 -31 8 3 -20 -3 -47
-8 -35 -3 7 -16 25 -29 40 -14 14 -22 19 -19 10 4 -9 2 -19 -4 -22 -7 -5 -9 4
-7 24 2 19 -1 29 -8 27 -18 -6 -49 31 -53 65 -2 18 -8 37 -13 42 -6 6 -10 14
-10 18 0 5 19 -15 43 -44 24 -29 61 -66 83 -83z m738 110 c-4 -8 -11 -15 -16
-15 -6 0 -5 6 2 15 7 8 14 15 16 15 2 0 1 -7 -2 -15z m-1336 -16 c20 -6 41
-15 47 -20 5 -5 -12 -2 -39 7 -48 16 -129 16 -171 -2 -17 -7 -18 -5 -8 7 16
20 120 25 171 8z m1317 -34 c-1 -14 -5 -28 -9 -32 -4 -5 -7 -3 -6 2 5 23 -1
25 -17 9 -10 -10 -18 -22 -18 -28 0 -6 -4 -11 -10 -11 -5 -1 -21 -7 -35 -14
-15 -8 -2 9 30 42 30 30 57 56 60 56 3 1 5 -10 5 -24z m-1505 11 c0 -2 -7 -7
-16 -10 -8 -3 -12 -2 -9 4 6 10 25 14 25 6z m-50 -30 c0 -2 -8 -10 -17 -17
-16 -13 -17 -12 -4 4 13 16 21 21 21 13z m-67 -92 c-24 -41 -28 -60 -27 -119
1 -84 18 -127 75 -192 23 -26 10 -15 -29 25 -69 69 -86 92 -59 76 9 -6 9 -4 1
7 -6 8 -12 22 -12 32 -1 9 -2 29 -3 43 -1 14 -8 28 -15 31 -8 3 -14 10 -14 15
0 6 7 7 15 4 10 -3 18 1 21 12 3 9 10 26 16 37 10 18 9 19 -5 6 -11 -8 -17 -9
-17 -3 0 6 9 16 20 22 11 6 18 15 15 20 -3 5 4 11 15 15 11 3 20 11 20 17 0 6
2 9 5 6 3 -3 -7 -27 -22 -54z m295 -70 c40 -46 25 -112 -32 -134 -99 -37 -160
109 -66 157 33 17 70 8 98 -23z m985 9 c-7 -2 -21 -2 -30 0 -10 3 -4 5 12 5
17 0 24 -2 18 -5z m-750 -72 c3 8 6 5 6 -8 1 -12 6 -25 11 -28 16 -10 11 -29
-11 -43 -17 -11 -20 -11 -13 0 6 10 4 10 -9 -1 -14 -11 -15 -16 -5 -29 11 -13
11 -14 -1 -7 -11 6 -13 4 -8 -8 3 -9 0 -18 -9 -21 -8 -3 -13 -11 -12 -17 2 -6
-3 -14 -11 -17 -9 -3 -11 0 -6 8 5 9 4 11 -4 6 -6 -4 -9 -12 -6 -17 4 -5 -1
-19 -11 -31 -10 -15 -14 -17 -11 -6 4 10 2 20 -3 23 -5 3 -11 -4 -15 -15 -3
-11 -11 -21 -16 -21 -15 -2 -22 -5 -61 -22 -42 -19 -48 -20 -48 -9 0 4 21 15
48 24 59 21 115 75 144 138 12 27 26 46 30 44 4 -3 8 -1 8 5 0 5 -5 11 -11 13
-7 2 -9 13 -4 27 5 17 10 20 15 11 6 -10 9 -9 13 1z m-597 -56 c-3 -20 -16
-31 -16 -13 0 13 8 28 16 28 1 0 1 -7 0 -15z m536 -177 c-7 -7 -12 -8 -12 -2
0 14 12 26 19 19 2 -3 -1 -11 -7 -17z m-347 -6 c-3 -3 -11 0 -18 7 -9 10 -8
11 6 5 10 -3 15 -9 12 -12z m62 -18 c-3 -3 -12 -4 -19 -1 -8 3 -5 6 6 6 11 1
17 -2 13 -5z m76 -11 c-13 -2 -33 -2 -45 0 -13 2 -3 4 22 4 25 0 35 -2 23 -4z
m2897 -137 c0 -2 -9 -6 -20 -9 -11 -3 -20 -1 -20 4 0 5 9 9 20 9 11 0 20 -2
20 -4z m-42 -131 c0 -13 -6 -30 -14 -36 -10 -8 -12 -5 -8 17 9 47 22 59 22 19z
m-2341 -81 c-3 -3 -12 -4 -19 -1 -8 3 -5 6 6 6 11 1 17 -2 13 -5z m97 -17 c4
4 9 -3 13 -15 3 -12 9 -20 13 -17 5 3 16 -5 24 -17 9 -12 17 -19 17 -15 1 4 3
12 4 17 1 6 3 15 4 20 0 6 6 10 12 10 8 0 8 -5 -1 -15 -7 -8 -9 -15 -5 -15 4
0 2 -6 -4 -14 -10 -11 -8 -16 8 -21 11 -3 20 -9 19 -13 -1 -4 4 -18 11 -32 8
-13 -8 -2 -36 27 -27 28 -76 65 -109 82 -38 21 -49 30 -31 26 22 -4 27 -3 21
7 -4 7 2 5 13 -5 11 -9 23 -14 27 -10z m51 4 c3 -5 2 -12 -3 -15 -5 -3 -9 1
-9 9 0 17 3 19 12 6z m-502 -24 c-58 -30 -109 -80 -155 -151 -21 -33 -38 -57
-38 -55 0 2 9 28 19 56 10 29 16 52 13 51 -23 -2 -23 4 -2 19 14 10 28 17 32
16 3 -1 11 4 18 12 9 10 8 13 -3 11 -8 -1 -21 -7 -29 -14 -8 -6 -19 -8 -23 -4
-5 4 -5 1 0 -7 5 -10 4 -12 -4 -7 -14 9 -5 26 15 26 9 0 12 5 8 13 -4 6 -4 9
0 5 5 -4 19 -3 32 2 15 6 24 6 24 0 0 -6 5 -10 11 -10 5 0 7 4 4 10 -4 6 1 7
11 3 13 -5 15 -3 9 8 -4 8 -5 11 -1 7 5 -4 25 2 44 13 20 10 41 19 47 19 5 -1
-9 -11 -32 -23z m323 -155 c120 -61 174 -213 118 -326 -23 -44 -72 -94 -119
-119 -30 -16 -58 -21 -110 -21 -52 0 -80 5 -110 21 -46 25 -96 75 -118 118
-62 125 7 291 142 342 49 18 146 11 197 -15z m331 -239 c-3 -10 -5 -2 -5 17 0
19 2 27 5 18 2 -10 2 -26 0 -35z m-833 -195 c-4 -6 -3 -8 4 -4 5 3 19 -9 30
-26 27 -44 76 -89 136 -127 28 -17 46 -31 40 -31 -5 0 -23 9 -40 19 -18 11
-35 16 -40 11 -12 -12 -87 13 -77 25 5 4 0 5 -10 2 -11 -4 -16 -3 -12 4 4 6
-2 13 -12 15 -11 3 -27 19 -37 35 -12 21 -23 29 -34 25 -15 -6 -15 -5 -1 6 21
17 44 60 41 78 -2 11 0 10 8 -3 6 -9 8 -22 4 -29z m2543 -13 c-4 -8 -2 -17 3
-20 6 -4 10 2 10 11 0 10 3 15 6 11 4 -3 4 -14 0 -23 -5 -13 -9 -14 -21 -4
-12 10 -11 40 2 40 3 0 3 -7 0 -15z m-1778 -24 c-20 -28 -19 -58 3 -45 6 4 6
-2 -1 -15 -14 -25 -19 -27 -17 -5 0 9 -4 19 -11 21 -15 6 -10 -47 7 -57 8 -5
5 -9 -9 -13 -12 -3 -22 -1 -22 4 -1 5 -2 13 -3 18 0 5 -4 12 -7 16 -4 3 -5 -9
-2 -29 l4 -35 -36 5 c-20 2 -44 0 -55 -6 -11 -6 -21 -6 -25 -1 -5 9 32 27 48
23 4 -1 6 1 5 6 -2 6 131 142 139 142 2 0 -6 -13 -18 -29z m-2731 -166 c-3 -3
-9 2 -12 12 -6 14 -5 15 5 6 7 -7 10 -15 7 -18z m-38 -29 c0 -3 -4 -8 -10 -11
-5 -3 -10 -1 -10 4 0 6 5 11 10 11 6 0 10 -2 10 -4z m3120 -990 c0 -2 -7 -6
-15 -10 -8 -3 -15 -1 -15 4 0 6 7 10 15 10 8 0 15 -2 15 -4z m39 -15 c11 -7 9
-11 -8 -21 -13 -6 -30 -9 -38 -5 -14 5 -14 7 3 20 22 17 25 17 43 6z m-1894
-31 c3 -5 1 -10 -4 -10 -6 0 -11 5 -11 10 0 6 2 10 4 10 3 0 8 -4 11 -10z
m1835 -4 c0 -2 -9 -6 -20 -9 -11 -3 -18 -1 -14 4 5 9 34 13 34 5z"/>
<path d="M10211 12616 c-7 -8 -10 -20 -7 -25 9 -13 58 8 53 23 -6 17 -33 18
-46 2z"/>
<path d="M9890 11602 c6 -13 14 -21 18 -18 3 4 -2 14 -12 24 -18 16 -18 16 -6
-6z"/>
<path d="M9620 10310 c0 -5 5 -10 11 -10 5 0 7 5 4 10 -3 6 -8 10 -11 10 -2 0
-4 -4 -4 -10z"/>
<path d="M10280 10249 c0 -5 -5 -7 -12 -3 -7 4 -8 3 -4 -4 4 -6 13 -9 21 -6 8
4 12 10 9 15 -7 12 -14 11 -14 -2z"/>
<path d="M7170 10861 c0 -5 5 -13 10 -16 6 -3 10 -2 10 4 0 5 -4 13 -10 16 -5
3 -10 2 -10 -4z"/>
<path d="M7450 10236 c0 -2 8 -10 18 -17 15 -13 16 -12 3 4 -13 16 -21 21 -21
13z"/>
<path d="M7511 10158 c18 -27 34 -48 36 -48 7 0 -16 35 -42 65 -20 23 -19 18
6 -17z"/>
</g>
</svg>
