<?xml version="1.0" standalone="no"?>
<!DOCTYPE svg PUBLIC "-//W3C//DTD SVG 20010904//EN"
 "http://www.w3.org/TR/2001/REC-SVG-20010904/DTD/svg10.dtd">
<svg version="1.0" xmlns="http://www.w3.org/2000/svg"
 width="800.000000pt" height="800.000000pt" viewBox="0 0 800.000000 800.000000"
 preserveAspectRatio="xMidYMid meet">

<g transform="translate(0.000000,800.000000) scale(0.100000,-0.100000)"
fill="#000000" stroke="none">
<path d="M5521 7299 c-19 -6 -57 -25 -85 -43 -58 -38 -430 -386 -440 -412 -8
-22 -10 -20 229 -264 110 -113 254 -263 320 -335 66 -71 159 -172 207 -223 88
-94 88 -94 73 -122 -8 -16 -36 -45 -61 -65 l-47 -35 -452 0 c-503 0 -531 -3
-574 -60 -30 -42 -51 -104 -51 -154 0 -59 46 -144 97 -179 37 -27 52 -30 154
-37 63 -5 152 -13 199 -19 47 -6 150 -15 230 -21 80 -6 228 -20 330 -32 161
-18 195 -19 260 -8 145 24 203 67 557 416 190 187 227 228 250 279 37 80 39
178 5 246 -23 47 -176 218 -477 534 -89 94 -223 238 -298 320 -167 184 -214
217 -320 221 -40 2 -87 -1 -106 -7z"/>
<path d="M4553 6888 c-102 -77 -327 -285 -370 -342 -50 -65 -25 -134 93 -258
32 -35 122 -129 198 -211 76 -81 149 -150 162 -153 13 -3 47 0 76 7 37 9 189
14 495 18 l442 6 -102 105 c-162 166 -380 401 -532 574 -77 88 -171 192 -211
233 l-71 73 -56 0 c-52 0 -61 -4 -124 -52z"/>
<path d="M4135 6117 c-176 -153 -305 -289 -334 -352 -35 -73 -45 -143 -31
-215 6 -30 8 -61 5 -71 -3 -9 -37 -43 -74 -74 -103 -86 -117 -122 -80 -213
l14 -33 -73 -65 c-101 -92 -100 -100 24 -235 53 -57 114 -127 136 -156 46 -61
92 -82 137 -63 15 6 51 36 81 66 57 58 62 61 100 39 14 -8 51 -14 83 -15 65 0
72 5 164 114 l42 50 78 -27 c183 -64 293 -20 533 210 143 137 150 123 -71 147
-205 22 -280 67 -345 204 -57 120 -54 239 7 329 39 58 34 77 -34 152 -95 104
-212 222 -247 250 l-35 28 -80 -70z"/>
<path d="M3447 4672 c-21 -31 -61 -88 -89 -127 -209 -290 -194 -595 33 -670
151 -51 295 10 350 147 40 96 11 290 -64 440 -64 127 -156 268 -175 268 -10 0
-34 -26 -55 -58z"/>
<path d="M2322 4120 c-18 -11 -36 -30 -41 -43 -5 -13 -1 -87 9 -182 10 -88 25
-241 34 -340 10 -99 26 -261 36 -360 10 -99 26 -254 35 -345 9 -91 24 -250 35
-355 10 -104 26 -266 35 -360 24 -254 53 -556 75 -775 10 -107 24 -253 30
-324 12 -139 23 -178 61 -213 61 -56 237 -103 469 -125 166 -16 745 -16 875 0
275 35 412 86 454 170 18 38 27 107 71 587 11 121 27 285 35 365 29 290 74
737 105 1055 12 116 29 296 40 400 10 105 26 267 35 360 9 94 22 226 30 295
15 144 10 165 -45 192 -31 16 -73 18 -407 18 l-373 0 -4 -22 c-3 -13 -7 -45
-9 -73 -2 -27 -6 -57 -8 -65 -4 -13 40 -15 340 -18 l344 -2 -6 -38 c-6 -38
-14 -121 -42 -412 -8 -91 -24 -259 -35 -375 -11 -115 -27 -284 -36 -375 -14
-157 -28 -298 -73 -745 -11 -110 -28 -272 -36 -360 -9 -88 -25 -239 -36 -335
-19 -160 -23 -177 -46 -202 -82 -86 -296 -118 -781 -118 -350 1 -583 28 -688
83 -57 29 -65 48 -85 189 -21 157 -53 446 -74 678 -29 320 -65 702 -105 1115
-11 116 -22 233 -25 260 -2 28 -11 115 -19 195 -8 80 -20 199 -26 265 -6 66
-13 132 -16 147 l-6 28 314 2 c271 3 313 5 311 18 -1 8 -7 47 -15 85 l-13 70
-345 3 c-330 2 -346 1 -378 -18z"/>
<path d="M2955 3234 c-70 -4 -232 -23 -257 -30 -21 -6 -23 -37 -8 -163 5 -47
17 -165 25 -261 9 -96 25 -265 36 -375 11 -110 28 -288 39 -395 11 -107 27
-274 35 -370 25 -263 43 -400 56 -416 18 -22 134 -54 233 -64 175 -17 460 -22
646 -11 266 16 382 37 399 70 9 15 31 226 71 676 5 55 16 170 25 255 8 85 22
225 31 310 8 85 22 218 31 295 22 205 41 459 34 467 -3 4 -44 -7 -91 -23 -261
-93 -429 -93 -865 0 -140 30 -305 43 -440 35z"/>
</g>
</svg>
