<?xml version="1.0" standalone="no"?>
<!DOCTYPE svg PUBLIC "-//W3C//DTD SVG 20010904//EN"
 "http://www.w3.org/TR/2001/REC-SVG-20010904/DTD/svg10.dtd">
<svg version="1.0" xmlns="http://www.w3.org/2000/svg"
 width="2048.000000pt" height="2048.000000pt" viewBox="0 0 2048.000000 2048.000000"
 preserveAspectRatio="xMidYMid meet">

<g transform="translate(0.000000,2048.000000) scale(0.100000,-0.100000)"
fill="#000000" stroke="none">
<path d="M5824 19540 c-11 -4 -140 -87 -287 -183 -146 -97 -413 -270 -594
-385 -180 -115 -402 -258 -493 -317 -154 -101 -369 -239 -590 -379 l-95 -60
-120 -3 c-66 -2 -193 -8 -283 -13 -320 -20 -294 -7 -940 -484 -388 -287 -445
-329 -699 -515 -138 -102 -675 -492 -863 -628 -63 -46 -212 -151 -330 -235
-118 -83 -244 -172 -280 -198 -36 -26 -100 -70 -142 -99 -43 -28 -82 -60 -88
-70 -14 -27 -14 -2622 0 -2672 18 -63 35 -66 232 -36 400 62 799 101 958 94
63 -2 221 -20 350 -40 129 -19 321 -43 425 -53 229 -20 643 -23 930 -5 247 15
647 16 820 1 408 -34 705 -85 1162 -199 492 -124 952 -269 1508 -477 143 -54
281 -99 306 -102 50 -4 102 16 168 65 74 56 136 195 156 350 l7 52 61 -52
c137 -116 327 -248 534 -370 307 -182 614 -293 917 -333 157 -21 440 -14 701
16 147 17 224 21 340 17 152 -5 265 -27 265 -51 -1 -13 -236 -188 -402 -298
-249 -165 -589 -359 -1039 -593 -453 -235 -584 -311 -784 -449 -164 -113 -268
-200 -386 -324 -307 -320 -429 -654 -429 -1171 1 -625 167 -1149 462 -1457
251 -262 609 -442 1323 -669 471 -150 795 -266 795 -286 0 -4 -141 -81 -312
-170 -396 -205 -590 -314 -759 -424 -501 -326 -757 -619 -868 -992 -139 -469
-39 -1030 266 -1488 248 -374 518 -610 918 -805 406 -198 827 -294 1345 -307
447 -11 832 39 1228 158 221 67 329 108 510 195 517 248 861 523 1417 1134
356 390 523 544 730 675 188 118 318 164 481 172 178 9 258 -18 359 -121 124
-127 240 -324 294 -501 44 -144 59 -223 87 -465 54 -465 101 -697 205 -1004
206 -609 571 -1073 1060 -1350 665 -377 1565 -374 2279 7 299 159 512 339 905
762 180 195 414 419 635 608 218 188 266 236 281 285 10 36 9 45 -15 97 -51
113 -260 286 -429 358 -201 84 -274 79 -652 -47 -232 -78 -381 -141 -574 -244
-281 -150 -473 -282 -601 -414 -92 -94 -219 -199 -337 -278 -196 -132 -353
-189 -544 -197 -129 -6 -192 4 -276 45 -155 75 -290 303 -396 672 -53 182 -73
281 -112 557 -69 479 -111 680 -185 883 -253 693 -734 1176 -1386 1393 -278
92 -504 122 -862 114 -362 -8 -629 -60 -951 -184 -447 -172 -711 -380 -1126
-888 -331 -405 -556 -610 -840 -767 -416 -229 -942 -312 -1377 -218 -232 50
-498 203 -593 340 l-29 42 49 44 c210 188 631 492 1005 724 161 99 369 237
500 330 135 97 237 183 379 323 393 386 548 735 576 1297 16 303 -48 690 -160
970 -136 338 -303 548 -575 717 -165 104 -460 215 -755 287 -741 178 -1051
264 -1043 288 5 13 311 183 623 345 616 321 717 380 950 554 490 366 786 789
874 1251 100 524 4 1197 -235 1648 -112 210 -272 397 -423 495 -230 149 -497
213 -773 186 -245 -25 -371 -55 -773 -182 -272 -87 -470 -140 -592 -160 -116
-19 -361 -16 -457 5 -76 17 -226 67 -255 85 -11 7 -2 30 46 118 142 255 130
238 189 266 99 49 184 146 199 227 4 22 1 52 -8 77 l-14 42 50 63 c126 157
469 528 788 854 224 228 229 235 229 344 -1 205 -146 473 -363 668 -92 83
-137 113 -238 162 -88 42 -157 52 -202 28 -105 -55 -491 -405 -830 -751 l-168
-172 -17 25 c-216 311 -272 385 -466 625 -400 495 -572 667 -751 751 -80 37
-442 173 -707 265 -53 19 -94 37 -90 41 4 3 120 51 257 106 138 55 331 134
430 174 99 41 270 108 380 148 303 110 481 183 690 285 375 184 513 304 589
515 54 147 45 293 -25 436 -58 117 -169 204 -243 190 -46 -9 -650 -179 -876
-246 -107 -32 -256 -75 -330 -95 -74 -20 -253 -70 -398 -111 -144 -41 -265
-74 -267 -74 -3 0 16 30 41 67 100 146 135 246 136 385 0 72 -5 106 -22 150
-28 74 -108 163 -175 195 -54 24 -68 26 -101 13z m92 -152 c55 -49 84 -118 84
-203 0 -158 -54 -267 -228 -456 l-61 -65 -103 -27 c-57 -15 -222 -61 -368
-102 -587 -165 -712 -197 -885 -230 -99 -18 -205 -37 -235 -40 l-55 -7 50 33
c110 72 436 283 715 462 637 409 730 469 875 566 83 55 155 100 162 100 7 1
29 -14 49 -31z m1871 -319 c14 -55 16 -140 3 -173 -11 -31 -40 -50 -132 -88
-164 -66 -336 -94 -429 -68 -51 14 -98 48 -136 98 -47 62 -44 76 20 91 28 6
185 51 347 100 162 49 300 88 305 87 6 -1 15 -22 22 -47z m177 -78 c50 -112
45 -242 -15 -368 -63 -132 -183 -227 -477 -376 -200 -102 -275 -134 -667 -282
-165 -62 -356 -137 -425 -165 -69 -29 -284 -117 -479 -196 l-353 -144 -162 51
c-88 28 -337 108 -552 179 -215 71 -408 132 -428 135 -28 6 -41 3 -56 -10 -20
-18 -26 -60 -12 -82 4 -6 248 -91 542 -187 885 -290 1393 -469 1595 -561 129
-59 259 -179 504 -465 259 -301 511 -631 658 -860 44 -69 122 -190 173 -270
l92 -145 -28 -20 c-16 -11 -58 -49 -94 -85 -76 -75 -100 -132 -100 -237 0
-155 157 -462 278 -543 96 -64 217 -64 350 0 47 22 87 38 89 36 22 -21 -66
-105 -160 -152 -68 -35 -188 -64 -261 -64 -192 1 -421 116 -583 293 -142 156
-337 415 -448 595 -47 78 -77 112 -178 202 -182 164 -435 444 -622 688 -43 57
-90 109 -104 117 -14 7 -62 18 -106 25 -121 18 -410 77 -590 120 -268 64 -465
135 -558 198 -49 34 -90 40 -122 18 -11 -7 -56 -16 -100 -20 -324 -29 -483
-153 -567 -441 -21 -73 -23 -100 -23 -295 0 -240 10 -305 72 -485 103 -299
324 -552 618 -707 189 -99 351 -155 721 -247 491 -123 764 -233 1004 -404 108
-77 299 -269 368 -370 66 -96 117 -205 143 -304 23 -94 25 -244 4 -328 -16
-59 -72 -175 -85 -175 -4 0 -4 19 1 43 11 59 11 164 -1 227 -34 180 -142 274
-417 366 -98 33 -114 36 -193 32 -56 -4 -101 -12 -133 -26 -57 -26 -137 -99
-171 -156 -30 -51 -66 -159 -66 -198 0 -15 -2 -28 -6 -28 -3 0 -53 16 -112 36
-59 20 -206 64 -327 99 l-220 64 3 43 c2 24 17 83 33 131 29 83 29 90 14 113
-19 29 -64 32 -87 7 -29 -33 -54 -111 -73 -226 -5 -34 -8 -37 -33 -31 -15 4
-31 10 -36 14 -10 10 16 134 50 232 13 40 24 82 24 95 0 26 -40 56 -67 51 -39
-7 -88 -129 -113 -285 -5 -31 -11 -58 -14 -60 -2 -3 -98 16 -213 41 -316 68
-585 109 -908 137 -175 15 -647 16 -865 1 -91 -7 -282 -12 -426 -12 -360 0
-570 17 -947 76 -270 42 -391 44 -730 9 -189 -19 -521 -60 -636 -78 -12 -2
-14 184 -15 1263 l-1 1264 105 73 c58 40 161 113 230 162 265 190 563 403 740
531 102 73 215 155 252 181 37 27 145 106 240 177 95 71 241 178 323 239 83
60 283 208 445 328 468 346 507 374 578 410 106 53 167 64 418 75 594 27 901
78 1534 257 69 19 251 70 405 113 154 43 413 117 575 163 162 47 437 124 610
171 173 48 322 89 331 92 12 3 24 -10 43 -49 14 -30 47 -76 74 -103 135 -142
348 -155 637 -39 131 53 189 95 221 161 24 50 26 62 21 140 -6 99 4 100 47 5z
m958 -2521 c133 -66 285 -203 378 -340 83 -122 140 -276 140 -380 l0 -45 -223
-225 c-246 -249 -650 -683 -758 -817 l-26 -31 -80 126 c-45 70 -119 190 -165
267 -47 77 -120 194 -163 260 -43 66 -102 160 -132 210 l-53 90 222 223 c380
381 728 692 776 692 13 0 51 -14 84 -30z m-4150 -181 c210 -106 559 -205 1006
-284 106 -19 197 -37 203 -40 5 -4 60 -70 123 -148 223 -279 438 -510 604
-650 62 -52 93 -88 124 -141 23 -39 70 -112 105 -162 34 -51 63 -95 63 -99 0
-3 -26 -48 -59 -98 -154 -242 -284 -509 -341 -707 -12 -41 -24 -81 -26 -88 -3
-9 -23 2 -63 32 -250 193 -535 310 -1103 457 -146 37 -317 85 -380 105 -448
144 -750 420 -878 802 -44 132 -63 256 -63 422 0 166 16 254 68 366 74 163
172 217 439 243 54 6 101 12 104 15 8 9 7 9 74 -25z m3248 -1240 c26 -41 102
-162 170 -269 182 -289 167 -260 144 -277 -36 -29 -138 -72 -181 -79 -103 -15
-195 63 -282 238 -64 129 -90 238 -72 298 18 61 132 175 165 166 5 -1 30 -36
56 -77z m-883 -467 c123 -168 279 -318 411 -394 118 -69 287 -128 364 -128
l29 0 -49 -72 c-178 -267 -294 -519 -349 -762 -24 -104 -21 -299 5 -396 11
-41 23 -83 27 -92 4 -10 3 -18 -1 -18 -19 0 -334 234 -430 318 -95 85 -102 94
-114 144 -17 74 -75 219 -116 288 -45 77 -143 207 -188 249 -21 21 -36 44 -36
58 0 58 117 368 193 513 51 97 201 350 207 350 3 -1 24 -26 47 -58z m813 -804
c-67 -141 -111 -270 -142 -413 -32 -144 -31 -395 0 -510 26 -94 88 -229 138
-298 20 -27 34 -51 32 -53 -8 -8 -132 73 -170 111 -78 78 -137 225 -145 366
-11 184 36 370 151 604 57 115 177 315 190 315 3 0 -22 -55 -54 -122z m2435
88 c111 -75 190 -174 235 -291 17 -45 24 -88 27 -175 4 -100 1 -128 -21 -215
-42 -165 -161 -388 -295 -555 -56 -71 -290 -310 -332 -341 -27 -19 -27 -19
-70 5 -135 75 -388 88 -764 41 -337 -43 -627 -26 -800 46 -220 93 -402 327
-445 576 -20 109 -8 325 23 438 21 76 82 243 92 253 1 2 27 -8 58 -22 128 -56
289 -86 468 -86 253 0 493 49 922 189 282 93 443 134 578 150 52 6 108 13 124
15 17 1 57 4 90 5 53 1 66 -3 110 -33z m313 -48 c124 -51 139 -63 177 -139
117 -231 118 -578 4 -867 -44 -111 -112 -243 -169 -327 -299 -443 -822 -848
-1599 -1239 -287 -145 -429 -207 -906 -399 -361 -146 -551 -229 -688 -299
-168 -88 -134 -51 135 144 201 147 350 234 848 493 604 314 857 464 1224 725
487 346 825 719 962 1059 64 161 87 263 88 401 0 169 -44 309 -139 433 -20 26
-31 47 -25 47 6 0 46 -14 88 -32z m466 -411 c197 -295 307 -671 337 -1147 22
-349 -32 -657 -164 -930 -182 -376 -563 -743 -1086 -1044 -249 -144 -647 -331
-1014 -477 -157 -63 -328 -136 -622 -266 -825 -366 -1301 -733 -1443 -1110
-15 -40 -30 -73 -34 -73 -22 0 -110 288 -142 465 -86 464 -50 964 86 1193 18
30 59 84 92 119 165 178 391 304 982 548 142 59 347 143 454 187 621 257 1194
579 1589 895 247 196 493 452 615 638 208 317 307 661 277 961 -6 60 -14 122
-18 138 -10 46 10 25 91 -97z m-4749 -237 c217 -77 283 -148 293 -313 5 -83
-9 -207 -27 -235 -5 -9 -28 -3 -92 22 -46 18 -208 77 -359 131 -151 54 -279
101 -283 105 -12 11 9 106 37 166 31 66 76 117 129 144 61 31 180 23 302 -20z
m2661 -3745 c99 -44 359 -123 567 -174 725 -175 716 -173 778 -210 111 -65
243 -211 308 -339 62 -121 80 -335 41 -486 -102 -398 -481 -791 -1102 -1140
l-137 -77 -38 25 c-89 59 -283 130 -893 326 -353 114 -516 177 -737 286 -200
98 -243 132 -268 214 -41 134 -27 296 35 429 127 267 485 610 989 944 144 96
368 227 388 227 7 0 38 -11 69 -25z m-381 -1 c-11 -8 -108 -72 -215 -144 -414
-274 -695 -527 -862 -774 -128 -191 -172 -313 -173 -478 0 -60 -3 -108 -7
-108 -10 0 -105 109 -145 167 -44 64 -51 120 -29 216 58 246 306 511 721 770
210 131 822 434 710 351z m2145 -540 c122 -68 207 -133 241 -184 52 -77 109
-302 109 -430 0 -32 -7 -97 -15 -146 -55 -311 -248 -622 -550 -882 -374 -322
-823 -569 -1582 -873 -591 -236 -814 -342 -1045 -496 -76 -50 -138 -88 -138
-84 0 20 188 187 335 297 250 188 383 266 1070 624 479 249 722 394 934 554
412 313 657 654 712 991 15 92 7 276 -15 360 -22 80 -96 233 -135 277 -56 64
-48 63 79 -8z m530 -596 c77 -166 147 -439 171 -668 17 -159 7 -474 -19 -621
-42 -231 -114 -411 -246 -608 -201 -301 -448 -524 -901 -813 -226 -144 -383
-232 -722 -402 -551 -277 -823 -453 -1073 -693 -281 -269 -435 -604 -400 -868
5 -38 9 -76 10 -84 1 -38 -194 174 -306 331 -89 127 -223 381 -265 505 -63
184 -94 392 -86 573 8 186 43 295 138 440 192 293 518 502 1214 780 328 131
408 164 650 272 648 288 1110 599 1409 947 111 129 144 177 210 302 105 199
156 385 159 581 1 59 6 108 10 108 5 0 26 -37 47 -82z m3204 -2207 c243 -43
417 -101 628 -207 573 -290 954 -819 1112 -1544 26 -124 40 -207 87 -540 74
-531 204 -914 405 -1196 345 -483 896 -640 1399 -399 268 129 429 281 750 710
111 149 239 311 284 362 172 195 413 378 533 407 92 22 382 -126 507 -259 71
-75 69 -87 -31 -167 -237 -188 -546 -484 -946 -905 -262 -276 -414 -402 -645
-537 -238 -140 -519 -239 -823 -293 -142 -25 -567 -25 -709 0 -278 49 -517
134 -729 257 -219 128 -389 278 -563 496 -311 392 -505 916 -587 1587 -9 70
-23 184 -32 255 -56 458 -177 715 -474 1013 -161 161 -261 245 -425 354 -367
245 -807 385 -1208 385 -47 0 -77 4 -72 9 18 16 210 89 325 124 134 40 336 82
500 102 174 21 558 14 714 -14z m-1254 -375 c242 -30 443 -92 675 -205 155
-76 227 -120 358 -220 l89 -66 -89 -6 c-138 -11 -255 -43 -390 -108 -278 -135
-474 -299 -856 -716 -578 -630 -909 -905 -1366 -1136 -358 -180 -731 -290
-1186 -350 -140 -19 -219 -23 -445 -23 -475 -1 -811 56 -1188 200 -141 54
-316 137 -357 169 -19 15 -19 15 5 11 205 -40 635 -56 901 -35 447 35 832 143
1229 345 346 176 585 356 895 675 227 233 355 401 663 866 178 267 308 440
380 503 104 92 389 132 682 96z m-1416 -893 c-140 -218 -492 -598 -723 -781
-462 -369 -1012 -597 -1602 -666 -168 -20 -443 -31 -550 -22 -86 8 -87 8 -134
54 -95 93 -146 197 -160 324 -22 201 90 465 287 681 l54 59 99 -99 c188 -187
432 -293 772 -338 360 -47 812 29 1158 195 254 123 447 261 655 471 144 145
179 174 144 122z m-2704 -61 c-403 -359 -568 -619 -594 -937 -12 -141 34 -312
110 -412 14 -18 21 -33 17 -33 -57 0 -368 76 -381 93 -16 20 -32 79 -41 155
-38 305 176 660 580 959 139 103 354 243 373 243 6 0 -23 -31 -64 -68z m10064
-1264 c-110 -104 -288 -324 -439 -543 -265 -382 -521 -593 -841 -692 -82 -25
-102 -27 -259 -27 -156 0 -177 2 -258 27 -99 31 -185 72 -267 127 -95 65 -95
65 46 61 331 -9 633 140 1026 507 178 166 329 270 584 404 152 79 439 207 467
208 11 0 -11 -27 -59 -72z"/>
<path d="M3497 17914 c-183 -33 -319 -107 -474 -259 -126 -124 -144 -155 -115
-194 35 -48 51 -40 178 87 106 106 129 124 214 166 205 100 427 120 663 60 53
-14 61 -13 83 1 24 15 31 46 18 79 -8 20 -81 42 -209 61 -122 18 -254 18 -358
-1z"/>
<path d="M11014 12078 c-25 -12 -44 -48 -44 -84 0 -34 51 -84 85 -84 16 0 38
12 56 29 73 73 -5 184 -97 139z"/>
<path d="M10720 11802 c-32 -26 -38 -90 -10 -124 17 -23 29 -28 65 -28 36 0
47 5 70 32 31 37 29 77 -7 115 -26 28 -86 31 -118 5z"/>
<path d="M10459 11421 c-25 -25 -29 -37 -29 -83 0 -69 23 -98 78 -98 50 0 79
22 92 71 16 58 -2 107 -46 125 -48 20 -62 18 -95 -15z"/>
<path d="M11008 11395 c-30 -17 -53 -73 -43 -107 17 -56 74 -83 130 -62 19 8
45 55 45 84 0 37 -28 77 -61 89 -39 13 -38 14 -71 -4z"/>
<path d="M10409 11017 c-69 -53 -39 -171 44 -171 41 0 65 17 82 58 16 36 4 84
-26 109 -24 20 -77 22 -100 4z"/>
<path d="M8149 10354 c-20 -22 -24 -36 -24 -90 0 -55 3 -67 26 -89 57 -58 136
-20 146 68 10 89 -20 137 -85 137 -28 0 -45 -7 -63 -26z"/>
<path d="M8639 10322 c-26 -23 -31 -35 -31 -74 -2 -77 42 -120 107 -104 36 9
58 50 59 108 1 43 -3 53 -27 74 -37 31 -70 30 -108 -4z"/>
<path d="M7668 10045 c-32 -18 -51 -71 -43 -119 8 -41 30 -64 72 -72 25 -5 37
0 64 24 29 26 33 35 33 82 0 45 -4 56 -28 76 -31 27 -59 30 -98 9z"/>
<path d="M8095 9815 c-35 -34 -35 -111 0 -149 55 -59 145 -11 145 79 0 59 -32
95 -85 95 -25 0 -44 -8 -60 -25z"/>
<path d="M7424 9510 c-56 -23 -73 -116 -30 -166 52 -61 147 -20 150 64 1 48
-18 86 -51 101 -28 13 -40 13 -69 1z"/>
<path d="M11156 7049 c-20 -24 -26 -41 -26 -80 0 -77 28 -119 80 -119 76 0
126 111 85 189 -16 33 -33 41 -80 41 -25 0 -40 -8 -59 -31z"/>
<path d="M10724 6750 c-33 -13 -54 -50 -54 -96 0 -35 5 -47 31 -68 41 -35 83
-34 120 3 50 51 37 130 -26 157 -39 16 -42 16 -71 4z"/>
<path d="M10203 6346 c-24 -21 -28 -32 -28 -76 0 -44 4 -55 28 -76 71 -61 158
7 136 106 -15 68 -83 91 -136 46z"/>
<path d="M10685 6286 c-54 -54 -37 -154 29 -176 66 -21 116 23 116 103 0 80
-92 126 -145 73z"/>
<path d="M9095 5865 c-20 -19 -25 -34 -25 -75 0 -41 5 -56 25 -75 28 -29 70
-32 102 -10 45 31 54 125 16 167 -25 27 -88 24 -118 -7z"/>
<path d="M8529 5604 c-19 -21 -24 -36 -24 -81 0 -48 4 -58 28 -79 34 -29 66
-31 100 -4 34 27 48 79 36 125 -19 66 -94 88 -140 39z"/>
<path d="M9144 5360 c-61 -25 -73 -112 -24 -162 26 -25 36 -29 63 -24 45 9 77
48 77 96 0 66 -61 113 -116 90z"/>
<path d="M7964 5330 c-50 -20 -69 -92 -39 -149 23 -46 83 -56 128 -21 53 42
42 140 -19 166 -38 16 -41 16 -70 4z"/>
<path d="M8453 5050 c-30 -12 -43 -41 -43 -93 0 -54 30 -87 79 -87 44 0 66 13
81 49 34 84 -36 163 -117 131z"/>
<path d="M7931 4639 c-39 -42 -33 -136 9 -159 35 -19 85 -12 110 15 32 34 31
107 -1 141 -30 31 -90 33 -118 3z"/>
</g>
</svg>
