<?xml version="1.0" encoding="iso-8859-1"?>
<!-- Uploaded to: SVG Repo, www.svgrepo.com, Generator: SVG Repo Mixer Tools -->
<svg fill="#000000" height="800px" width="800px" version="1.1" id="Layer_1" xmlns="http://www.w3.org/2000/svg" xmlns:xlink="http://www.w3.org/1999/xlink" 
	 viewBox="0 0 512 512" xml:space="preserve">
<g>
	<g>
		<path d="M256,0C114.837,0,0,114.837,0,256s114.837,256,256,256s256-114.837,256-256S397.163,0,256,0z M377.749,313.749
			c-4.16,4.16-9.621,6.251-15.083,6.251c-5.462,0-10.923-2.091-15.083-6.251L256,222.165l-91.584,91.584
			c-8.341,8.341-21.824,8.341-30.165,0c-8.341-8.341-8.341-21.824,0-30.165l106.667-106.667c8.341-8.341,21.824-8.341,30.165,0
			L377.75,283.584C386.091,291.925,386.091,305.408,377.749,313.749z"/>
	</g>
</g>
</svg>